<svg width="26" height="26" viewBox="0 0 26 26" fill="none" xmlns="http://www.w3.org/2000/svg">
<g clip-path="url(#clip0_3_94)">
<path d="M0 3.58143C0 2.63157 0.377328 1.72062 1.04898 1.04898C1.72062 0.377328 2.63157 0 3.58143 0H21.4886C22.4384 0 23.3494 0.377328 24.021 1.04898C24.6927 1.72062 25.07 2.63157 25.07 3.58143V21.4886C25.07 22.4384 24.6927 23.3494 24.021 24.021C23.3494 24.6927 22.4384 25.07 21.4886 25.07H3.58143C2.63157 25.07 1.72062 24.6927 1.04898 24.021C0.377328 23.3494 0 22.4384 0 21.4886V3.58143ZM3.58143 1.79071C3.1065 1.79071 2.65103 1.97938 2.3152 2.3152C1.97938 2.65103 1.79071 3.1065 1.79071 3.58143V21.4886C1.79071 21.9635 1.97938 22.419 2.3152 22.7548C2.65103 23.0906 3.1065 23.2793 3.58143 23.2793H21.4886C21.9635 23.2793 22.419 23.0906 22.7548 22.7548C23.0906 22.419 23.2793 21.9635 23.2793 21.4886V3.58143C23.2793 3.1065 23.0906 2.65103 22.7548 2.3152C22.419 1.97938 21.9635 1.79071 21.4886 1.79071H3.58143ZM12.535 5.37214C12.7725 5.37214 13.0002 5.46648 13.1681 5.63439C13.336 5.8023 13.4304 6.03004 13.4304 6.2675V11.6396H18.8025C19.04 11.6396 19.2677 11.734 19.4356 11.9019C19.6035 12.0698 19.6979 12.2975 19.6979 12.535C19.6979 12.7725 19.6035 13.0002 19.4356 13.1681C19.2677 13.336 19.04 13.4304 18.8025 13.4304H13.4304V18.8025C13.4304 19.04 13.336 19.2677 13.1681 19.4356C13.0002 19.6035 12.7725 19.6979 12.535 19.6979C12.2975 19.6979 12.0698 19.6035 11.9019 19.4356C11.734 19.2677 11.6396 19.04 11.6396 18.8025V13.4304H6.2675C6.03004 13.4304 5.8023 13.336 5.63439 13.1681C5.46648 13.0002 5.37214 12.7725 5.37214 12.535C5.37214 12.2975 5.46648 12.0698 5.63439 11.9019C5.8023 11.734 6.03004 11.6396 6.2675 11.6396H11.6396V6.2675C11.6396 6.03004 11.734 5.8023 11.9019 5.63439C12.0698 5.46648 12.2975 5.37214 12.535 5.37214Z" fill="black"/>
</g>
<defs>
<clipPath id="clip0_3_94">
<rect width="25.07" height="25.07" fill="white"/>
</clipPath>
</defs>
</svg>
