<svg width="228" height="228" viewBox="0 0 228 228" fill="none" xmlns="http://www.w3.org/2000/svg">
<g filter="url(#filter0_d_28_72)">
<rect x="2" y="2" width="224" height="224" rx="10" fill="white"/>
<path d="M110.453 90.1406H91.1562C90.5977 90.1406 90.1406 90.5977 90.1406 91.1562V110.453C90.1406 111.012 90.5977 111.469 91.1562 111.469H110.453C111.012 111.469 111.469 111.012 111.469 110.453V91.1562C111.469 90.5977 111.012 90.1406 110.453 90.1406ZM107.152 107.152H94.457V94.457H107.152V107.152ZM135.844 90.1406H116.547C115.988 90.1406 115.531 90.5977 115.531 91.1562V110.453C115.531 111.012 115.988 111.469 116.547 111.469H135.844C136.402 111.469 136.859 111.012 136.859 110.453V91.1562C136.859 90.5977 136.402 90.1406 135.844 90.1406ZM132.543 107.152H119.848V94.457H132.543V107.152ZM135.844 115.531H116.547C115.988 115.531 115.531 115.988 115.531 116.547V135.844C115.531 136.402 115.988 136.859 116.547 136.859H135.844C136.402 136.859 136.859 136.402 136.859 135.844V116.547C136.859 115.988 136.402 115.531 135.844 115.531ZM132.543 132.543H119.848V119.848H132.543V132.543ZM107.914 126.195H99.7891V118.07C99.7891 117.791 99.5605 117.562 99.2812 117.562H96.2344C95.9551 117.562 95.7266 117.791 95.7266 118.07V126.195H87.6016C87.3223 126.195 87.0938 126.424 87.0938 126.703V129.75C87.0938 130.029 87.3223 130.258 87.6016 130.258H95.7266V138.383C95.7266 138.662 95.9551 138.891 96.2344 138.891H99.2812C99.5605 138.891 99.7891 138.662 99.7891 138.383V130.258H107.914C108.193 130.258 108.422 130.029 108.422 129.75V126.703C108.422 126.424 108.193 126.195 107.914 126.195Z" fill="#3D3D3D"/>
</g>
<defs>
<filter id="filter0_d_28_72" x="0" y="0" width="228" height="228" filterUnits="userSpaceOnUse" color-interpolation-filters="sRGB">
<feFlood flood-opacity="0" result="BackgroundImageFix"/>
<feColorMatrix in="SourceAlpha" type="matrix" values="0 0 0 0 0 0 0 0 0 0 0 0 0 0 0 0 0 0 127 0" result="hardAlpha"/>
<feOffset/>
<feGaussianBlur stdDeviation="1"/>
<feComposite in2="hardAlpha" operator="out"/>
<feColorMatrix type="matrix" values="0 0 0 0 0 0 0 0 0 0 0 0 0 0 0 0 0 0 0.25 0"/>
<feBlend mode="normal" in2="BackgroundImageFix" result="effect1_dropShadow_28_72"/>
<feBlend mode="normal" in="SourceGraphic" in2="effect1_dropShadow_28_72" result="shape"/>
</filter>
</defs>
</svg>
