<svg width="26" height="27" viewBox="0 0 26 27" fill="none" xmlns="http://www.w3.org/2000/svg">
<path d="M9.64224 26.0358V19.2766C9.64224 18.8041 10.1244 18.322 10.6065 18.322H14.4634C14.9455 18.322 15.4276 18.8041 15.4276 19.2862V26.0358C15.4276 26.2915 15.5292 26.5368 15.71 26.7176C15.8908 26.8984 16.1361 27 16.3918 27H24.1056C24.3613 27 24.6066 26.8984 24.7874 26.7176C24.9682 26.5368 25.0698 26.2915 25.0698 26.0358V12.5366C25.0701 12.4099 25.0453 12.2844 24.997 12.1673C24.9487 12.0501 24.8778 11.9437 24.7883 11.854L22.1772 9.24478V2.8944C22.1772 2.63867 22.0756 2.39341 21.8947 2.21259C21.7139 2.03176 21.4687 1.93017 21.2129 1.93017H19.2845C19.0288 1.93017 18.7835 2.03176 18.6027 2.21259C18.4218 2.39341 18.3203 2.63867 18.3203 2.8944V5.38788L13.2176 0.283277C13.128 0.193482 13.0216 0.12224 12.9045 0.0736306C12.7873 0.0250212 12.6617 0 12.5349 0C12.4081 0 12.2825 0.0250212 12.1654 0.0736306C12.0482 0.12224 11.9418 0.193482 11.8522 0.283277L0.281555 11.854C0.192072 11.9437 0.121147 12.0501 0.0728359 12.1673C0.024525 12.2844 -0.00022476 12.4099 1.53793e-06 12.5366V26.0358C1.53793e-06 26.2915 0.101589 26.5368 0.282416 26.7176C0.463243 26.8984 0.708498 27 0.964226 27H8.67802C8.93375 27 9.179 26.8984 9.35983 26.7176C9.54066 26.5368 9.64224 26.2915 9.64224 26.0358Z" fill="black"/>
</svg>
