<svg width="26" height="26" viewBox="0 0 26 26" fill="none" xmlns="http://www.w3.org/2000/svg">
<path d="M3.13384 6.26751L11.4905 11.4904L19.8472 6.26751V9.40126H21.9363V4.17834C21.9363 3.0293 20.9962 2.08917 19.8472 2.08917H3.13384C1.9848 2.08917 1.05512 3.0293 1.05512 4.17834L1.04468 16.7133C1.04468 17.8624 1.9848 18.8025 3.13384 18.8025H13.5797V16.7133H3.13384V6.26751ZM19.8472 4.17834L11.4905 9.40126L3.13384 4.17834H19.8472Z" fill="black"/>
<path d="M21.9362 14.6242V18.8025C21.9362 19.9515 20.9961 20.8917 19.847 20.8917C18.698 20.8917 17.7579 19.9515 17.7579 18.8025V14.1019C17.7579 13.8094 17.9877 13.5796 18.2802 13.5796C18.5726 13.5796 18.8025 13.8094 18.8025 14.1019V18.8025H20.8916V14.1019C20.8916 13.4093 20.6165 12.745 20.1267 12.2553C19.637 11.7656 18.9728 11.4904 18.2802 11.4904C17.5876 11.4904 16.9233 11.7656 16.4336 12.2553C15.9438 12.745 15.6687 13.4093 15.6687 14.1019V18.8025C15.6687 21.111 17.5385 22.9808 19.847 22.9808C22.1556 22.9808 24.0254 21.111 24.0254 18.8025V14.6242H21.9362Z" fill="black"/>
</svg>
