<svg width="26" height="34" viewBox="0 0 26 34" fill="none" xmlns="http://www.w3.org/2000/svg">
<path d="M10.4458 13.5796C10.4458 13.3025 10.5559 13.0368 10.7518 12.841C10.9477 12.6451 11.2134 12.535 11.4904 12.535H18.8025C19.0795 12.535 19.3452 12.6451 19.5411 12.841C19.737 13.0368 19.8471 13.3025 19.8471 13.5796C19.8471 13.8566 19.737 14.1223 19.5411 14.3182C19.3452 14.5141 19.0795 14.6242 18.8025 14.6242H11.4904C11.2134 14.6242 10.9477 14.5141 10.7518 14.3182C10.5559 14.1223 10.4458 13.8566 10.4458 13.5796ZM10.4458 19.8471C10.4458 19.57 10.5559 19.3043 10.7518 19.1084C10.9477 18.9126 11.2134 18.8025 11.4904 18.8025H18.8025C19.0795 18.8025 19.3452 18.9126 19.5411 19.1084C19.737 19.3043 19.8471 19.57 19.8471 19.8471C19.8471 20.1241 19.737 20.3898 19.5411 20.5857C19.3452 20.7816 19.0795 20.8917 18.8025 20.8917H11.4904C11.2134 20.8917 10.9477 20.7816 10.7518 20.5857C10.5559 20.3898 10.4458 20.1241 10.4458 19.8471ZM10.4458 26.1146C10.4458 25.8375 10.5559 25.5718 10.7518 25.3759C10.9477 25.1801 11.2134 25.07 11.4904 25.07H18.8025C19.0795 25.07 19.3452 25.1801 19.5411 25.3759C19.737 25.5718 19.8471 25.8375 19.8471 26.1146C19.8471 26.3916 19.737 26.6573 19.5411 26.8532C19.3452 27.0491 19.0795 27.1592 18.8025 27.1592H11.4904C11.2134 27.1592 10.9477 27.0491 10.7518 26.8532C10.5559 26.6573 10.4458 26.3916 10.4458 26.1146ZM8.35667 13.5796C8.35667 13.9951 8.19159 14.3937 7.89774 14.6875C7.60389 14.9814 7.20535 15.1465 6.78979 15.1465C6.37423 15.1465 5.97569 14.9814 5.68184 14.6875C5.388 14.3937 5.22292 13.9951 5.22292 13.5796C5.22292 13.164 5.388 12.7655 5.68184 12.4716C5.97569 12.1778 6.37423 12.0127 6.78979 12.0127C7.20535 12.0127 7.60389 12.1778 7.89774 12.4716C8.19159 12.7655 8.35667 13.164 8.35667 13.5796ZM8.35667 19.8471C8.35667 20.2626 8.19159 20.6612 7.89774 20.955C7.60389 21.2489 7.20535 21.414 6.78979 21.414C6.37423 21.414 5.97569 21.2489 5.68184 20.955C5.388 20.6612 5.22292 20.2626 5.22292 19.8471C5.22292 19.4315 5.388 19.033 5.68184 18.7391C5.97569 18.4453 6.37423 18.2802 6.78979 18.2802C7.20535 18.2802 7.60389 18.4453 7.89774 18.7391C8.19159 19.033 8.35667 19.4315 8.35667 19.8471ZM6.78979 27.6815C7.20535 27.6815 7.60389 27.5164 7.89774 27.2225C8.19159 26.9287 8.35667 26.5301 8.35667 26.1146C8.35667 25.699 8.19159 25.3005 7.89774 25.0066C7.60389 24.7128 7.20535 24.5477 6.78979 24.5477C6.37423 24.5477 5.97569 24.7128 5.68184 25.0066C5.388 25.3005 5.22292 25.699 5.22292 26.1146C5.22292 26.5301 5.388 26.9287 5.68184 27.2225C5.97569 27.5164 6.37423 27.6815 6.78979 27.6815ZM6.44508 2.08917C6.66119 1.47792 7.06155 0.94875 7.59101 0.57458C8.12046 0.200409 8.75293 -0.000339448 9.40125 4.30863e-07H15.6687C16.3171 -0.000339448 16.9495 0.200409 17.479 0.57458C18.0084 0.94875 18.4088 1.47792 18.6249 2.08917H21.9362C22.7674 2.08917 23.5645 2.41933 24.1521 3.00702C24.7398 3.59471 25.07 4.3918 25.07 5.22292V30.2929C25.07 31.124 24.7398 31.9211 24.1521 32.5088C23.5645 33.0965 22.7674 33.4267 21.9362 33.4267H3.13375C2.30263 33.4267 1.50555 33.0965 0.917854 32.5088C0.330162 31.9211 0 31.124 0 30.2929V5.22292C0 4.3918 0.330162 3.59471 0.917854 3.00702C1.50555 2.41933 2.30263 2.08917 3.13375 2.08917H6.44508ZM9.40125 2.08917C9.12421 2.08917 8.85851 2.19922 8.66262 2.39512C8.46672 2.59102 8.35667 2.85671 8.35667 3.13375C8.35667 3.41079 8.46672 3.67648 8.66262 3.87238C8.85851 4.06828 9.12421 4.17833 9.40125 4.17833H15.6687C15.9458 4.17833 16.2115 4.06828 16.4074 3.87238C16.6033 3.67648 16.7133 3.41079 16.7133 3.13375C16.7133 2.85671 16.6033 2.59102 16.4074 2.39512C16.2115 2.19922 15.9458 2.08917 15.6687 2.08917H9.40125ZM6.44508 4.17833H3.13375C2.85671 4.17833 2.59102 4.28839 2.39512 4.48429C2.19922 4.68018 2.08917 4.94588 2.08917 5.22292V30.2929C2.08917 30.57 2.19922 30.8357 2.39512 31.0315C2.59102 31.2274 2.85671 31.3375 3.13375 31.3375H21.9362C22.2133 31.3375 22.479 31.2274 22.6749 31.0315C22.8708 30.8357 22.9808 30.57 22.9808 30.2929V5.22292C22.9808 4.94588 22.8708 4.68018 22.6749 4.48429C22.479 4.28839 22.2133 4.17833 21.9362 4.17833H18.6249C18.4088 4.78958 18.0084 5.31875 17.479 5.69292C16.9495 6.06709 16.3171 6.26784 15.6687 6.2675H9.40125C8.75293 6.26784 8.12046 6.06709 7.59101 5.69292C7.06155 5.31875 6.66119 4.78958 6.44508 4.17833Z" fill="black"/>
</svg>
