<svg width="26" height="26" viewBox="0 0 26 26" fill="none" xmlns="http://www.w3.org/2000/svg">
<path d="M5.22296 2.08917C4.07078 2.08917 3.13379 3.02616 3.13379 4.17834V16.7133C3.13379 17.8655 4.07078 18.8025 5.22296 18.8025H8.96883L12.535 22.3687L16.1012 18.8025H19.8471C20.9993 18.8025 21.9363 17.8655 21.9363 16.7133V4.17834C21.9363 3.02616 20.9993 2.08917 19.8471 2.08917H5.22296ZM19.8471 16.7133H15.2363L12.535 19.4146L9.83375 16.7133H5.22296V4.17834H19.8471V16.7133Z" fill="black"/>
<path d="M7.31201 7.31207H17.7578V9.40124H7.31201V7.31207ZM7.31201 11.4904H14.6241V13.5796H7.31201V11.4904Z" fill="black"/>
</svg>
