<svg width="67" height="67" viewBox="0 0 67 67" fill="none" xmlns="http://www.w3.org/2000/svg">
<path d="M56.1713 49.9621C54.9371 47.0385 53.1459 44.3829 50.8977 42.1433C48.6563 39.8971 46.0011 38.1063 43.0788 36.8696C43.0527 36.8565 43.0265 36.85 43.0003 36.8369C47.0766 33.8926 49.7265 29.0966 49.7265 23.6855C49.7265 14.7217 42.4638 7.45898 33.4999 7.45898C24.5361 7.45898 17.2734 14.7217 17.2734 23.6855C17.2734 29.0966 19.9233 33.8926 23.9995 36.8435C23.9734 36.8565 23.9472 36.8631 23.921 36.8762C20.9898 38.1128 18.3595 39.8859 16.1022 42.1498C13.856 44.3912 12.0652 47.0464 10.8285 49.9687C9.61365 52.8296 8.95843 55.8969 8.89836 59.0045C8.89661 59.0743 8.90886 59.1438 8.93438 59.2088C8.9599 59.2738 8.99818 59.3331 9.04696 59.3831C9.09574 59.4331 9.15404 59.4728 9.21841 59.5C9.28279 59.5271 9.35194 59.541 9.42179 59.541H13.3476C13.6355 59.541 13.8645 59.312 13.871 59.0307C14.0019 53.9795 16.0302 49.2489 19.6157 45.6634C23.3256 41.9535 28.2525 39.9121 33.4999 39.9121C38.7474 39.9121 43.6742 41.9535 47.3841 45.6634C50.9697 49.2489 52.998 53.9795 53.1288 59.0307C53.1354 59.3186 53.3644 59.541 53.6523 59.541H57.5781C57.6479 59.541 57.7171 59.5271 57.7814 59.5C57.8458 59.4728 57.9041 59.4331 57.9529 59.3831C58.0017 59.3331 58.0399 59.2738 58.0655 59.2088C58.091 59.1438 58.1032 59.0743 58.1015 59.0045C58.0361 55.877 57.3883 52.8345 56.1713 49.9621ZM33.4999 34.9395C30.4967 34.9395 27.6701 33.7683 25.5437 31.6418C23.4172 29.5153 22.246 26.6888 22.246 23.6855C22.246 20.6823 23.4172 17.8558 25.5437 15.7293C27.6701 13.6028 30.4967 12.4316 33.4999 12.4316C36.5031 12.4316 39.3297 13.6028 41.4562 15.7293C43.5826 17.8558 44.7538 20.6823 44.7538 23.6855C44.7538 26.6888 43.5826 29.5153 41.4562 31.6418C39.3297 33.7683 36.5031 34.9395 33.4999 34.9395Z" fill="#1E90FF"/>
</svg>
