<svg width="26" height="26" viewBox="0 0 26 26" fill="none" xmlns="http://www.w3.org/2000/svg">
<g clip-path="url(#clip0_3_108)">
<path d="M22.3839 13.3938V12.7133V12.0239L24.103 10.5197C24.4199 10.2404 24.6279 9.85805 24.6901 9.44025C24.7524 9.02246 24.6649 8.5961 24.4432 8.23654L22.3302 4.65511C22.1732 4.38315 21.9474 4.15727 21.6756 4.00012C21.4037 3.84297 21.0953 3.76007 20.7812 3.75975C20.5866 3.75826 20.3931 3.7885 20.2082 3.84929L18.0325 4.58348C17.6569 4.33386 17.265 4.10952 16.8596 3.91196L16.4029 1.65566C16.3211 1.24344 16.0968 0.873154 15.7694 0.609616C15.4421 0.346079 15.0324 0.206083 14.6122 0.214135H10.422C10.0018 0.206083 9.59212 0.346079 9.26474 0.609616C8.93737 0.873154 8.71311 1.24344 8.63124 1.65566L8.17461 3.91196C7.76626 4.10948 7.37144 4.33381 6.99274 4.58348L4.86178 3.81347C4.67492 3.76478 4.48141 3.74664 4.28876 3.75975C3.97473 3.76007 3.66631 3.84297 3.39444 4.00012C3.12257 4.15727 2.8968 4.38315 2.73979 4.65511L0.626746 8.23654C0.417758 8.59556 0.340098 9.01608 0.407069 9.42607C0.47404 9.83606 0.681473 10.21 0.993842 10.4839L2.68607 12.0328V13.4027L0.993842 14.9069C0.672649 15.1827 0.459542 15.5634 0.39234 15.9813C0.325137 16.3993 0.408185 16.8276 0.626746 17.1901L2.73979 20.7715C2.8968 21.0435 3.12257 21.2694 3.39444 21.4265C3.66631 21.5837 3.97473 21.6666 4.28876 21.6669C4.48336 21.6684 4.67691 21.6381 4.86178 21.5774L7.0375 20.8432C7.41314 21.0928 7.80498 21.3171 8.21042 21.5147L8.66705 23.771C8.74893 24.1832 8.97318 24.5535 9.30056 24.817C9.62794 25.0806 10.0376 25.2206 10.4578 25.2125H14.6839C15.104 25.2206 15.5137 25.0806 15.8411 24.817C16.1684 24.5535 16.3927 24.1832 16.4746 23.771L16.9312 21.5147C17.3395 21.3172 17.7344 21.0928 18.1131 20.8432L20.2798 21.5774C20.4647 21.6381 20.6583 21.6684 20.8529 21.6669C21.1669 21.6666 21.4753 21.5837 21.7472 21.4265C22.0191 21.2694 22.2448 21.0435 22.4018 20.7715L24.4432 17.1901C24.6522 16.8311 24.7299 16.4106 24.6629 16.0006C24.596 15.5906 24.3885 15.2166 24.0761 14.9428L22.3839 13.3938ZM20.7812 19.8762L17.7102 18.8376C16.9912 19.4465 16.1696 19.9225 15.2837 20.2433L14.648 23.4576H10.422L9.78625 20.2791C8.90739 19.9492 8.09019 19.474 7.36878 18.8734L4.28876 19.8762L2.17571 16.2947L4.61109 14.1459C4.44553 13.2191 4.44553 12.2702 4.61109 11.3434L2.17571 9.13189L4.28876 5.55046L7.35983 6.58908C8.07875 5.98014 8.90039 5.50413 9.78625 5.18337L10.422 1.96904H14.648L15.2837 5.14755C16.1626 5.47742 16.9798 5.95261 17.7012 6.55326L20.7812 5.55046L22.8943 9.13189L20.4589 11.2807C20.6245 12.2076 20.6245 13.1564 20.4589 14.0832L22.8943 16.2947L20.7812 19.8762Z" fill="black"/>
<path d="M12.535 18.0855C11.4725 18.0855 10.4338 17.7704 9.55038 17.1801C8.66694 16.5898 7.97838 15.7508 7.57177 14.7692C7.16517 13.7876 7.05878 12.7074 7.26607 11.6653C7.47335 10.6232 7.985 9.66599 8.73631 8.91468C9.48762 8.16338 10.4448 7.65173 11.4869 7.44444C12.529 7.23716 13.6092 7.34354 14.5908 7.75015C15.5724 8.15675 16.4115 8.84531 17.0018 9.72876C17.5921 10.6122 17.9071 11.6509 17.9071 12.7134C17.9143 13.4208 17.7803 14.1226 17.5128 14.7777C17.2454 15.4327 16.85 16.0278 16.3497 16.528C15.8494 17.0283 15.2543 17.4238 14.5993 17.6912C13.9443 17.9586 13.2425 18.0927 12.535 18.0855ZM12.535 9.13193C12.0617 9.12091 11.591 9.20601 11.1515 9.38209C10.712 9.55817 10.3128 9.82157 9.97798 10.1564C9.64319 10.4911 9.37979 10.8904 9.20371 11.3299C9.02763 11.7694 8.94253 12.24 8.95356 12.7134C8.94253 13.1867 9.02763 13.6573 9.20371 14.0969C9.37979 14.5364 9.64319 14.9356 9.97798 15.2704C10.3128 15.6052 10.712 15.8686 11.1515 16.0446C11.591 16.2207 12.0617 16.3058 12.535 16.2948C13.0083 16.3058 13.479 16.2207 13.9185 16.0446C14.358 15.8686 14.7572 15.6052 15.092 15.2704C15.4268 14.9356 15.6902 14.5364 15.8663 14.0969C16.0423 13.6573 16.1274 13.1867 16.1164 12.7134C16.1274 12.24 16.0423 11.7694 15.8663 11.3299C15.6902 10.8904 15.4268 10.4911 15.092 10.1564C14.7572 9.82157 14.358 9.55817 13.9185 9.38209C13.479 9.20601 13.0083 9.12091 12.535 9.13193Z" fill="black"/>
</g>
<defs>
<clipPath id="clip0_3_108">
<rect width="25.07" height="25.07" fill="white" transform="translate(0 0.178345)"/>
</clipPath>
</defs>
</svg>
