<svg width="30" height="30" viewBox="0 0 23 23" fill="none" xmlns="http://www.w3.org/2000/svg">
<path d="M7.68281 7.68286C7.86805 7.68286 8.0457 7.75645 8.17668 7.88743C8.30766 8.01841 8.38125 8.19606 8.38125 8.3813V16.7625C8.38125 16.9478 8.30766 17.1254 8.17668 17.2564C8.0457 17.3874 7.86805 17.461 7.68281 17.461C7.49758 17.461 7.31993 17.3874 7.18894 17.2564C7.05796 17.1254 6.98438 16.9478 6.98438 16.7625V8.3813C6.98438 8.19606 7.05796 8.01841 7.18894 7.88743C7.31993 7.75645 7.49758 7.68286 7.68281 7.68286ZM11.175 7.68286C11.3602 7.68286 11.5379 7.75645 11.6689 7.88743C11.7999 8.01841 11.8734 8.19606 11.8734 8.3813V16.7625C11.8734 16.9478 11.7999 17.1254 11.6689 17.2564C11.5379 17.3874 11.3602 17.461 11.175 17.461C10.9898 17.461 10.8121 17.3874 10.6811 17.2564C10.5501 17.1254 10.4766 16.9478 10.4766 16.7625V8.3813C10.4766 8.19606 10.5501 8.01841 10.6811 7.88743C10.8121 7.75645 10.9898 7.68286 11.175 7.68286ZM15.3656 8.3813C15.3656 8.19606 15.292 8.01841 15.1611 7.88743C15.0301 7.75645 14.8524 7.68286 14.6672 7.68286C14.482 7.68286 14.3043 7.75645 14.1733 7.88743C14.0423 8.01841 13.9688 8.19606 13.9688 8.3813V16.7625C13.9688 16.9478 14.0423 17.1254 14.1733 17.2564C14.3043 17.3874 14.482 17.461 14.6672 17.461C14.8524 17.461 15.0301 17.3874 15.1611 17.2564C15.292 17.1254 15.3656 16.9478 15.3656 16.7625V8.3813Z" fill="#FF1313"/>
<path fill-rule="evenodd" clip-rule="evenodd" d="M20.2551 4.19063C20.2551 4.5611 20.1079 4.9164 19.8459 5.17836C19.584 5.44033 19.2287 5.5875 18.8582 5.5875H18.1598V18.1594C18.1598 18.9003 17.8654 19.6109 17.3415 20.1349C16.8176 20.6588 16.107 20.9531 15.366 20.9531H6.98477C6.24382 20.9531 5.53322 20.6588 5.00929 20.1349C4.48536 19.6109 4.19102 18.9003 4.19102 18.1594V5.5875H3.49258C3.1221 5.5875 2.7668 5.44033 2.50484 5.17836C2.24287 4.9164 2.0957 4.5611 2.0957 4.19063V2.79375C2.0957 2.42328 2.24287 2.06798 2.50484 1.80601C2.7668 1.54405 3.1221 1.39688 3.49258 1.39688H8.38164C8.38164 1.0264 8.52881 0.6711 8.79078 0.409135C9.05274 0.14717 9.40804 0 9.77852 0L12.5723 0C12.9427 0 13.298 0.14717 13.56 0.409135C13.822 0.6711 13.9691 1.0264 13.9691 1.39688H18.8582C19.2287 1.39688 19.584 1.54405 19.8459 1.80601C20.1079 2.06798 20.2551 2.42328 20.2551 2.79375V4.19063ZM5.75272 5.5875L5.58789 5.66992V18.1594C5.58789 18.5299 5.73506 18.8852 5.99703 19.1471C6.25899 19.4091 6.61429 19.5562 6.98477 19.5562H15.366C15.7365 19.5562 16.0918 19.4091 16.3538 19.1471C16.6157 18.8852 16.7629 18.5299 16.7629 18.1594V5.66992L16.5981 5.5875H5.75272ZM3.49258 4.19063V2.79375H18.8582V4.19063H3.49258Z" fill="#FF1313"/>
</svg>
